# xmcd
#
# Track frame offsets:
#	150
#	16735
#	30015
#	46320
#	55675
#	68422
#	81895
#	91479
#	104310
#	120790
#	134660
#
# Disc length: 1921 seconds
#
# Revision: 1
# Processed by: cddbd v1.5.1PL0 Copyright (c) Steve Scherf et al.
# Submitted via: EasyCDDAExtractor 8.1.2.3
#
DISCID=77077f0b
DTITLE=Various Artist - Fogo de Chão vol 2
DYEAR=1995
DGENRE=Folklore
TTITLE0=OS SERRANOS - Rancho de Beira de Estrada
TTITLE1=PORCA VEIA - Chuvisqueiro
TTITLE2=NETO FAGUNDES - Baile de Rancho
TTITLE3=GRUPO CAVERA - Calça Larga
TTITLE4=NOEL GUARANY - Potro Sem Dono
TTITLE5=RUI BIRIVA - Assanhado
TTITLE6=LEONARDO - Bugio Malvado
TTITLE7=OS GUAPOS - Baile de Candeeiro
TTITLE8=MANOLO - Vire o Mate
TTITLE9=BETO CAETANO - Vila Unistalda
TTITLE10=Os Zequianos - Cancioneiro das Coxilhas
EXTD=
EXTT0=
EXTT1=
EXTT2=
EXTT3=
EXTT4=
EXTT5=
EXTT6=
EXTT7=
EXTT8=
EXTT9=
EXTT10=
PLAYORDER=
